<?xml version="1.0" standalone="no"?><!DOCTYPE svg PUBLIC "-//W3C//DTD SVG 1.1//EN" "http://www.w3.org/Graphics/SVG/1.1/DTD/svg11.dtd"><svg t="1725850521828" class="icon" viewBox="0 0 1024 1024" version="1.1" xmlns="http://www.w3.org/2000/svg" p-id="5129" xmlns:xlink="http://www.w3.org/1999/xlink" width="128" height="128"><path d="M500.213333 501.994667c9.922667 6.325333 21.698667 10.005333 34.338667 10.005333 35.344 0 64-28.650667 64-64 0-35.346667-28.656-64-64-64-35.346667 0-64 28.653333-64 64 0 7.122667 1.181333 13.965333 3.328 20.365333-86.202667 66.301333-141.765333 170.474667-141.765333 287.632 0 4.018667 0.098667 8.016 0.226667 12.002667l42.664 0c-0.146667-3.984-0.224-7.984-0.224-12.002667C374.781333 652.477333 423.965333 560.48 500.213333 501.994667z" p-id="5130"></path><path d="M534.552 256c-106.037333 0-192 85.962667-192 192 0 7.466667 0.472 14.818667 1.301333 22.064 0 0 1.317333 20.437333 22.04 20.602667 11.781333 0.093333 21.445333-8.666667 21.333333-21.333333-0.021333-2.568-1.944-16.056-2.008-21.333333-0.976-82.469333 66.858667-149.333333 149.333333-149.333333s149.333333 66.858667 149.333333 149.333333-66.858667 149.333333-149.333333 149.333333c-8.314667 0-24.845333-2.032-29.104-2.002667-12.250667 0.085333-21.333333 9.552-21.333333 21.333333s11.749333 19.834667 22.669333 21.266667c9.066667 1.325333 18.328 2.069333 27.765333 2.069333 106.04 0 192-85.957333 192-192C726.552 341.962667 640.592 256 534.552 256z" p-id="5131"></path></svg>